<svg width="22" height="24" viewBox="0 0 22 24" fill="none" xmlns="http://www.w3.org/2000/svg">
<path fill-rule="evenodd" clip-rule="evenodd" d="M6.70084 0C7.9895 0 9.03417 1.04467 9.03417 2.33333V4H13.0342V2.33333C13.0342 1.04467 14.0788 0 15.3675 0C16.6562 0 17.7008 1.04467 17.7008 2.33333V4H19.0007C20.4734 4 21.6673 5.19391 21.6673 6.66667V21.3333C21.6673 22.8061 20.4734 24 19.0007 24H3.00065C1.52789 24 0.333984 22.8061 0.333984 21.3333V6.66667C0.333984 5.19391 1.52789 4 3.00065 4H4.36751V2.33333C4.36751 1.04467 5.41217 0 6.70084 0ZM4.36751 5.33333H3.00065C2.26427 5.33333 1.66732 5.93029 1.66732 6.66667V12.0389H20.334V6.66667C20.334 5.93029 19.737 5.33333 19.0007 5.33333H17.7008V7C17.7008 8.28866 16.6562 9.33333 15.3675 9.33333C14.0788 9.33333 13.0342 8.28866 13.0342 7V5.33333H9.03417V7C9.03417 8.28866 7.9895 9.33333 6.70084 9.33333C5.41217 9.33333 4.36751 8.28866 4.36751 7V5.33333ZM20.334 13.3722H1.66732V21.3333C1.66732 22.0697 2.26427 22.6667 3.00065 22.6667H19.0007C19.737 22.6667 20.334 22.0697 20.334 21.3333V13.3722ZM6.70084 1.33333C6.14855 1.33333 5.70084 1.78105 5.70084 2.33333V7C5.70084 7.55229 6.14855 8 6.70084 8C7.25312 8 7.70084 7.55229 7.70084 7V2.33333C7.70084 1.78105 7.25312 1.33333 6.70084 1.33333ZM15.3675 1.33333C14.8152 1.33333 14.3675 1.78105 14.3675 2.33333V7C14.3675 7.55229 14.8152 8 15.3675 8C15.9198 8 16.3675 7.55229 16.3675 7V2.33333C16.3675 1.78105 15.9198 1.33333 15.3675 1.33333Z" fill="white"/>
</svg>
