<svg width="56" height="46" viewBox="0 0 56 46" fill="none" xmlns="http://www.w3.org/2000/svg">
<path d="M4.49779 42.488C4.70335 44.4298 6.44038 45.8398 8.38293 45.6417L48.3713 41.5634C49.9922 41.3981 51.2917 40.1493 51.5213 38.5363L55.4924 10.6422C55.7715 8.68229 54.3912 6.87362 52.4271 6.6254L4.44118 0.561249C2.17301 0.274612 0.230577 2.17813 0.471251 4.45164L4.49779 42.488Z" fill="white"/>
<path fill-rule="evenodd" clip-rule="evenodd" d="M37.2019 12.5919C36.7811 12.3267 36.1231 12.371 35.7432 12.6824L33.3245 14.6834C32.944 14.9974 32.976 15.4761 33.39 15.7526C33.39 15.7526 37.1262 18.2224 37.1262 23.5382C37.1262 28.5776 33.1874 31.4817 33.1874 31.4817C32.7906 31.7738 32.7735 32.2694 33.154 32.584L35.5544 34.5525C35.9342 34.8671 36.5929 34.9052 37.0177 34.6505C37.0177 34.6505 42.6599 31.1871 42.6599 23.5563C42.6599 15.9786 37.2019 12.5919 37.2019 12.5919Z" fill="#FF3D00"/>
<path fill-rule="evenodd" clip-rule="evenodd" d="M17.3869 25.4683C17.3869 25.4683 16.7415 25.4087 16.7415 25.9109C16.7415 28.748 18.9325 30.7698 22.3746 30.7698C24.9296 30.7698 26.0207 30.176 27.5637 29.0609C27.9247 28.7996 28.3095 28.5562 28.6014 28.8635C28.8048 29.0738 31.5156 31.4891 31.5156 31.4891C31.8552 31.7964 31.7623 32.1634 31.3982 32.4579C31.0366 32.7536 26.983 35.7922 22.325 35.7922C16.2324 35.7922 10.3828 33.2337 10.3828 23.5977C10.3828 15.8299 14.9423 11.4443 21.6319 11.4443C28.8174 11.4443 32.8791 16.2872 32.8791 22.8182V24.4706C32.8791 25.1444 32.3128 25.4683 31.8458 25.4683H17.3869ZM25.9416 18.8445C25.2485 17.4306 23.814 16.3764 21.6319 16.3764C19.4523 16.3764 18.0159 17.4306 17.3222 18.8445C16.9261 19.7132 16.7748 20.3537 16.7252 21.4025H26.5379C26.4877 20.3537 26.3377 19.7132 25.9416 18.8445Z" fill="#002EFF"/>
<mask id="mask0_5671_22233" style="mask-type:alpha" maskUnits="userSpaceOnUse" x="10" y="11" width="23" height="25">
<path fill-rule="evenodd" clip-rule="evenodd" d="M17.3869 25.4683C17.3869 25.4683 16.7415 25.4087 16.7415 25.9109C16.7415 28.748 18.9325 30.7698 22.3746 30.7698C24.9296 30.7698 26.0207 30.176 27.5637 29.0609C27.9247 28.7996 28.3095 28.5562 28.6014 28.8635C28.8048 29.0738 31.5156 31.4891 31.5156 31.4891C31.8552 31.7964 31.7623 32.1634 31.3982 32.4579C31.0366 32.7536 26.983 35.7922 22.325 35.7922C16.2324 35.7922 10.3828 33.2337 10.3828 23.5977C10.3828 15.8299 14.9423 11.4443 21.6319 11.4443C28.8174 11.4443 32.8791 16.2872 32.8791 22.8182V24.4706C32.8791 25.1444 32.3128 25.4683 31.8458 25.4683H17.3869ZM25.9416 18.8445C25.2485 17.4306 23.814 16.3764 21.6319 16.3764C19.4523 16.3764 18.0159 17.4306 17.3222 18.8445C16.9261 19.7132 16.7748 20.3537 16.7252 21.4025H26.5379C26.4877 20.3537 26.3377 19.7132 25.9416 18.8445Z" fill="white"/>
</mask>
<g mask="url(#mask0_5671_22233)">
</g>
</svg>
