<svg width="45" height="45" viewBox="0 0 45 45" fill="none" xmlns="http://www.w3.org/2000/svg">
<path fill-rule="evenodd" clip-rule="evenodd" d="M22.5 42.5C33.5457 42.5 42.5 33.5457 42.5 22.5C42.5 11.4543 33.5457 2.5 22.5 2.5C11.4543 2.5 2.5 11.4543 2.5 22.5C2.5 33.5457 11.4543 42.5 22.5 42.5ZM22.5 45C34.9264 45 45 34.9264 45 22.5C45 10.0736 34.9264 0 22.5 0C10.0736 0 0 10.0736 0 22.5C0 34.9264 10.0736 45 22.5 45Z" fill="#002EFF"/>
<path d="M30 13.7848C30 13.8903 29.9578 13.9852 29.8734 14.0696C29.8101 14.1329 29.7257 14.1646 29.6203 14.1646H18.8291C18.7236 14.1646 18.6709 14.2173 18.6709 14.3228V20.2405C18.6709 20.346 18.7236 20.3987 18.8291 20.3987H26.0759C26.1814 20.3987 26.2658 20.4409 26.3291 20.5253C26.4135 20.5886 26.4557 20.673 26.4557 20.7785V23.1835C26.4557 23.289 26.4135 23.384 26.3291 23.4684C26.2658 23.5316 26.1814 23.5633 26.0759 23.5633H18.8291C18.7236 23.5633 18.6709 23.616 18.6709 23.7215V29.8291C18.6709 29.9346 18.7236 29.9873 18.8291 29.9873H29.6203C29.7257 29.9873 29.8101 30.0295 29.8734 30.1139C29.9578 30.1772 30 30.2616 30 30.3671V32.7722C30 32.8776 29.9578 32.9726 29.8734 33.057C29.8101 33.1203 29.7257 33.1519 29.6203 33.1519H15.3797C15.2743 33.1519 15.1793 33.1203 15.0949 33.057C15.0316 32.9726 15 32.8776 15 32.7722V11.3797C15 11.2743 15.0316 11.1899 15.0949 11.1266C15.1793 11.0422 15.2743 11 15.3797 11H29.6203C29.7257 11 29.8101 11.0422 29.8734 11.1266C29.9578 11.1899 30 11.2743 30 11.3797V13.7848Z" fill="#002EFF"/>
</svg>
