<svg width="23" height="24" viewBox="0 0 23 24" fill="none" xmlns="http://www.w3.org/2000/svg">
<path fill-rule="evenodd" clip-rule="evenodd" d="M10.1312 1.35174C10.9077 0.599308 12.1416 0.600382 12.9168 1.35388L21.8952 10.0949C22.2819 10.4714 22.5 10.9882 22.5 11.528V21C22.5 22.6569 21.1569 24 19.5 24H13.5V18.9999C13.5 17.8954 12.6046 17 11.5002 17C10.3957 17 9.50032 17.8954 9.50032 18.9999V24H3.5C1.84315 24 0.5 22.6569 0.5 21V11.5308C0.5 10.9894 0.719468 10.4711 1.10827 10.0944L10.1312 1.35174ZM3.5 22C2.94772 22 2.5 21.5523 2.5 21V11.5308L11.5229 2.78809L20.5 11.528V21C20.5 21.5523 20.0523 22 19.5 22H15.5V18.9999C15.5 16.7908 13.7092 15 11.5002 15C9.29111 15 7.50032 16.7908 7.50032 18.9999V22H3.5Z" fill="white"/>
</svg>
