<svg width="24" height="24" viewBox="0 0 24 24" fill="none" xmlns="http://www.w3.org/2000/svg">
<path fill-rule="evenodd" clip-rule="evenodd" d="M24 12C24 18.6274 18.6274 24 12 24C5.37258 24 0 18.6274 0 12C0 5.37258 5.37258 0 12 0C18.6274 0 24 5.37258 24 12ZM19.1527 19.3915C21.0847 17.5216 22.2857 14.9011 22.2857 12C22.2857 6.31936 17.6806 1.71429 12 1.71429C6.31936 1.71429 1.71429 6.31936 1.71429 12C1.71429 14.901 2.9153 17.5216 4.84723 19.3915C5.61292 17.501 7.10592 15.9831 8.97939 15.1852C7.19857 14.1445 6.0022 12.2125 6.0022 10.0011C6.0022 6.68741 8.68849 4.00112 12.0022 4.00112C15.3159 4.00112 18.0022 6.68741 18.0022 10.0011C18.0022 12.2133 16.805 14.1459 15.0231 15.1863C16.8954 15.9845 18.3874 17.5019 19.1527 19.3915ZM17.741 20.5357C16.9922 18.0759 14.7046 16.2857 12 16.2857C9.29539 16.2857 7.00772 18.0758 6.25897 20.5357C7.89865 21.6407 9.874 22.2857 12 22.2857C14.126 22.2857 16.1013 21.6407 17.741 20.5357ZM12.0022 14.2868C14.3691 14.2868 16.2879 12.3681 16.2879 10.0011C16.2879 7.63418 14.3691 5.7154 12.0022 5.7154C9.63526 5.7154 7.71648 7.63418 7.71648 10.0011C7.71648 12.3681 9.63526 14.2868 12.0022 14.2868Z" fill="white"/>
</svg>
