<svg width="48" height="24" viewBox="0 0 48 24" fill="none" xmlns="http://www.w3.org/2000/svg">
<path fill-rule="evenodd" clip-rule="evenodd" d="M6.02242 18.0371H3C1.34315 18.0371 0 16.694 0 15.0371V13.8077C0 11.0492 1.88088 8.64609 4.55862 7.98341L11.9851 6.14552C12.091 6.11932 12.1919 6.07598 12.2837 6.01722L20.8939 0.509873C21.3765 0.201163 21.9375 0.0371094 22.5104 0.0371094H34.3382C36.6122 0.0371094 38.8394 0.683239 40.7603 1.90023L42.4221 2.95304C45.8952 5.15336 48 8.97854 48 13.0899V16.0371C48 17.1417 47.1046 18.0371 46 18.0371H42.9776C42.725 20.8404 40.369 23.0371 37.5 23.0371C34.631 23.0371 32.275 20.8404 32.0224 18.0371H16.9776C16.725 20.8404 14.369 23.0371 11.5 23.0371C8.63098 23.0371 6.27504 20.8404 6.02242 18.0371ZM21.9716 2.1947C22.1325 2.09179 22.3194 2.03711 22.5104 2.03711H34.3382C36.2332 2.03711 38.0892 2.57555 39.69 3.58971L41.3518 4.64252C44.246 6.47612 46 9.66377 46 13.0899V16.0371H42.793C42.14 13.7286 40.0176 12.0371 37.5 12.0371C34.9824 12.0371 32.86 13.7286 32.207 16.0371L16.793 16.0371C16.14 13.7286 14.0176 12.0371 11.5 12.0371C8.98245 12.0371 6.85996 13.7286 6.20703 16.0371H3C2.44772 16.0371 2 15.5894 2 15.0371V13.8077C2 11.9687 3.25392 10.3666 5.03908 9.92484L12.4656 8.08695C12.7832 8.00835 13.0858 7.87833 13.3614 7.70204L21.9716 2.1947ZM11.5 21.0371C13.433 21.0371 15 19.4701 15 17.5371C15 15.6041 13.433 14.0371 11.5 14.0371C9.567 14.0371 8 15.6041 8 17.5371C8 19.4701 9.567 21.0371 11.5 21.0371ZM37.5 21.0371C39.433 21.0371 41 19.4701 41 17.5371C41 15.6041 39.433 14.0371 37.5 14.0371C35.567 14.0371 34 15.6041 34 17.5371C34 19.4701 35.567 21.0371 37.5 21.0371Z" fill="#002EFF"/>
</svg>
