<svg width="30" height="36" viewBox="0 0 30 36" fill="none" xmlns="http://www.w3.org/2000/svg">
<path d="M7.28599 9C7.28599 8.28992 7.86163 7.71429 8.57171 7.71429H21.4289C22.1389 7.71429 22.7146 8.28992 22.7146 9C22.7146 9.71008 22.1389 10.2857 21.4289 10.2857H8.57171C7.86163 10.2857 7.28599 9.71008 7.28599 9Z" fill="white"/>
<path d="M8.57171 15.4286C7.86163 15.4286 7.28599 16.0042 7.28599 16.7143C7.28599 17.4244 7.86163 18 8.57171 18H21.4289C22.1389 18 22.7146 17.4244 22.7146 16.7143C22.7146 16.0042 22.1389 15.4286 21.4289 15.4286H8.57171Z" fill="white"/>
<path fill-rule="evenodd" clip-rule="evenodd" d="M25.286 36C27.4162 36 29.1431 34.2731 29.1431 32.1429V9C29.1431 4.02944 25.1137 0 20.1431 0H4.71456C2.58432 0 0.857422 1.7269 0.857422 3.85714V32.1429C0.857422 34.2731 2.58432 36 4.71456 36H11.1431V28.2857C11.1431 26.8656 12.2944 25.7143 13.7146 25.7143H16.286C17.7062 25.7143 18.8574 26.8656 18.8574 28.2857V36H25.286ZM20.1431 2.57143H4.71456C4.00448 2.57143 3.42885 3.14706 3.42885 3.85714V32.1429C3.42885 32.8529 4.00448 33.4286 4.71456 33.4286H8.57171V28.2857C8.57171 25.4454 10.8742 23.1429 13.7146 23.1429H16.286C19.1263 23.1429 21.4289 25.4454 21.4289 28.2857V33.4286H25.286C25.9961 33.4286 26.5717 32.8529 26.5717 32.1429V9C26.5717 5.4496 23.6935 2.57143 20.1431 2.57143Z" fill="white"/>
</svg>
