<svg width="22" height="24" viewBox="0 0 22 24" fill="none" xmlns="http://www.w3.org/2000/svg">
<path fill-rule="evenodd" clip-rule="evenodd" d="M5.66732 7.33333C4.93094 7.33333 4.33398 7.93029 4.33398 8.66667V11.3333C4.33398 12.0697 4.93094 12.6667 5.66732 12.6667H8.33398C9.07036 12.6667 9.66732 12.0697 9.66732 11.3333V8.66667C9.66732 7.93029 9.07036 7.33333 8.33398 7.33333H5.66732ZM5.66732 8.66667H8.33398V11.3333H5.66732V8.66667Z" fill="white"/>
<path fill-rule="evenodd" clip-rule="evenodd" d="M5.66732 14.6667C4.93094 14.6667 4.33398 15.2636 4.33398 16V18.6667C4.33398 19.403 4.93094 20 5.66732 20H8.33398C9.07036 20 9.66732 19.403 9.66732 18.6667V16C9.66732 15.2636 9.07036 14.6667 8.33398 14.6667H5.66732ZM5.66732 16H8.33398V18.6667H5.66732V16Z" fill="white"/>
<path d="M11.6673 10C11.6673 9.63184 11.9658 9.33337 12.334 9.33337H17.6673C18.0355 9.33337 18.334 9.63184 18.334 10C18.334 10.3682 18.0355 10.6667 17.6673 10.6667H12.334C11.9658 10.6667 11.6673 10.3682 11.6673 10Z" fill="white"/>
<path d="M12.334 16.6667C11.9658 16.6667 11.6673 16.9651 11.6673 17.3333C11.6673 17.7015 11.9658 18 12.334 18H16.334C16.7022 18 17.0007 17.7015 17.0007 17.3333C17.0007 16.9651 16.7022 16.6667 16.334 16.6667H12.334Z" fill="white"/>
<path fill-rule="evenodd" clip-rule="evenodd" d="M3.00065 0C1.52789 0 0.333984 1.19391 0.333984 2.66667V21.3333C0.333984 22.8061 1.52789 24 3.00065 24H19.0007C20.4734 24 21.6673 22.8061 21.6673 21.3333V6.90798C21.6673 6.36091 21.4432 5.83772 21.0472 5.46027L15.8981 0.552294C15.5262 0.197769 15.032 0 14.5182 0H3.00065ZM1.66732 2.66667C1.66732 1.93029 2.26427 1.33333 3.00065 1.33333H13.6706V5.33622C13.6706 6.44079 14.566 7.33622 15.6706 7.33622H20.334V21.3333C20.334 22.0697 19.737 22.6667 19.0007 22.6667H3.00065C2.26427 22.6667 1.66732 22.0697 1.66732 21.3333V2.66667ZM19.684 6.00289L15.0039 1.54196V5.33622C15.0039 5.70441 15.3024 6.00289 15.6706 6.00289H19.684Z" fill="white"/>
</svg>
