<svg width="48" height="35" viewBox="0 0 48 35" fill="none" xmlns="http://www.w3.org/2000/svg">
<path fill-rule="evenodd" clip-rule="evenodd" d="M12.3969 14.1709L15.6931 2H8.03302L9.44724 6.17948C9.62426 6.70263 9.34367 7.27022 8.82052 7.44724C8.29737 7.62426 7.72978 7.34367 7.55276 6.82052L6.13853 2.64104C5.69977 1.34434 6.66409 0 8.03302 0H15.6931C17.0104 0 17.968 1.25136 17.6236 2.52283L16.4787 6.75H32.4153L33.2912 4H31C30.4477 4 30 3.55228 30 3C30 2.44772 30.4477 2 31 2H39C39.5523 2 40 2.44772 40 3C40 3.55228 39.5523 4 39 4H35.3902L34.1869 7.77813L35.8381 14.1308C36.3794 14.0447 36.9345 14 37.5 14C43.299 14 48 18.701 48 24.5C48 30.299 43.299 35 37.5 35C31.701 35 27 30.299 27 24.5C27 22.4261 27.6013 20.4926 28.639 18.8643L15.8882 8.93054L14.321 14.7169C18.2306 16.245 21 20.0491 21 24.5C21 30.299 16.299 35 10.5 35C4.70101 35 0 30.299 0 24.5C0 18.701 4.70101 14 10.5 14C11.1477 14 11.7816 14.0586 12.3969 14.1709ZM37.5 16C37.108 16 36.7221 16.0265 36.3442 16.0779L38.4678 24.2484C38.5756 24.663 38.4073 25.1002 38.0494 25.3356C37.6914 25.5709 37.2234 25.5521 36.8854 25.2889L30.2257 20.1005C29.4478 21.3839 29 22.8897 29 24.5C29 29.1944 32.8056 33 37.5 33C42.1944 33 46 29.1944 46 24.5C46 19.8056 42.1944 16 37.5 16ZM35.7913 21.9011L31.4558 18.5235C32.2858 17.6842 33.2893 17.0169 34.4082 16.5798L35.7913 21.9011ZM33.9021 14.6326C32.3553 15.1968 30.9784 16.1143 29.8692 17.2874L18.9107 8.75H32.373L33.9021 14.6326ZM13.7943 16.6619L11.4652 25.2614C11.3209 25.7945 10.7717 26.1096 10.2386 25.9652C9.70551 25.8209 9.3904 25.2717 9.53477 24.7386L11.8717 16.1101C11.4251 16.0377 10.967 16 10.5 16C5.80558 16 2 19.8056 2 24.5C2 29.1944 5.80558 33 10.5 33C15.1944 33 19 29.1944 19 24.5C19 20.9737 16.8527 17.9489 13.7943 16.6619Z" fill="#002EFF"/>
</svg>
