<svg width="48" height="30" viewBox="0 0 48 30" fill="none" xmlns="http://www.w3.org/2000/svg">
<path fill-rule="evenodd" clip-rule="evenodd" d="M18.85 0.0371094C18.4832 0.0371094 18.1459 0.237882 17.971 0.56026L10.9069 13.5816C10.0059 13.2301 9.02548 13.0371 8 13.0371C3.58172 13.0371 0 16.6188 0 21.0371C0 25.4554 3.58172 29.0371 8 29.0371C12.4183 29.0371 16 25.4554 16 21.0371C16 18.3593 14.6843 15.9888 12.6642 14.5367L15.4491 9.40323L20.79 21.4202C20.9505 21.7814 21.3086 22.0141 21.7038 22.0141H32.0591C32.5409 25.9715 35.9125 29.0371 40 29.0371C44.4183 29.0371 48 25.4554 48 21.0371C48 17.6578 45.9047 14.7679 42.9425 13.5956L46.8144 7.26675C47.0032 6.95811 47.0106 6.57155 46.8337 6.25593C46.6568 5.94031 46.3232 5.74487 45.9614 5.74487H34.546C34.3297 5.74487 34.1191 5.81505 33.946 5.94488L28.8965 9.73208C27.0259 8.20286 24.5953 7.46616 22.3439 7.14612C20.2538 6.84898 18.2182 6.89655 16.7183 7.06364L19.4452 2.03711H24.5577C25.11 2.03711 25.5577 1.58939 25.5577 1.03711C25.5577 0.484825 25.11 0.0371094 24.5577 0.0371094H18.85ZM34.0001 21.0647C34.2299 18.88 35.0825 17.3189 36.2755 16.3327C37.2988 15.5215 38.5928 15.0371 40 15.0371C43.3137 15.0371 46 17.7234 46 21.0371C46 24.3508 43.3137 27.0371 40 27.0371C36.6955 27.0371 34.015 24.3657 34.0001 21.0647ZM35.0206 14.7753C35.0569 14.7455 35.0934 14.7161 35.1302 14.687C36.721 13.4307 38.7553 12.871 40.9682 12.9902L44.1773 7.74487H34.8794L29.4384 11.8257C29.0402 12.1243 28.4832 12.0847 28.1313 11.7328C26.6392 10.2407 24.392 9.45737 22.0625 9.12621C20.3878 8.88814 18.7457 8.89469 17.459 9.00108L22.3536 20.0141H32.0648C32.3349 17.8982 33.4315 16.0406 35.0206 14.7753ZM9.94289 15.3587L7.12102 20.5603C6.85766 21.0457 7.0377 21.6527 7.52315 21.9161C8.0086 22.1795 8.61563 21.9994 8.87898 21.514L11.7002 16.3136C13.1004 17.412 14 19.1195 14 21.0371C14 24.3508 11.3137 27.0371 8 27.0371C4.68629 27.0371 2 24.3508 2 21.0371C2 17.7234 4.68629 15.0371 8 15.0371C8.67998 15.0371 9.33354 15.1502 9.94289 15.3587Z" fill="#002EFF"/>
</svg>
