<svg width="24" height="12" viewBox="0 0 24 12" fill="none" xmlns="http://www.w3.org/2000/svg">
<path fill-rule="evenodd" clip-rule="evenodd" d="M10.4493 0.547925C10.6654 0.407656 10.9175 0.333008 11.1752 0.333008H16.7261C18.1209 0.333008 19.4863 0.73402 20.6595 1.48826C22.7415 2.82665 24 5.13185 24 7.60689V8.99967C24 9.36787 23.7015 9.66634 23.3333 9.66634H21.2493C20.9533 10.8165 19.9092 11.6663 18.6667 11.6663C17.4241 11.6663 16.38 10.8165 16.084 9.66634L8.58266 9.66634C8.28663 10.8165 7.24256 11.6663 6 11.6663C4.75744 11.6663 3.71337 10.8165 3.41734 9.66634H1.33333C0.596954 9.66634 0 9.06939 0 8.33301V7.50806C0 5.97981 1.03925 4.64732 2.52149 4.27511L6.08563 3.38009L10.4493 0.547925ZM16.084 8.33301C16.38 7.18286 17.4241 6.33301 18.6667 6.33301C19.9092 6.33301 20.9533 7.18286 21.2493 8.33301H22.6667V7.60689C22.6667 5.58554 21.6388 3.70289 19.9385 2.60983C18.9803 1.99385 17.8652 1.66634 16.7261 1.66634L11.1752 1.66634L6.81152 4.49851C6.68834 4.57846 6.5528 4.63751 6.41037 4.67328L2.84623 5.56829C1.95688 5.79162 1.33333 6.59111 1.33333 7.50806V8.33301H3.41735C3.71337 7.18286 4.75744 6.33301 6 6.33301C7.24256 6.33301 8.28663 7.18286 8.58266 8.33301L16.084 8.33301ZM6 10.333C6.73638 10.333 7.33333 9.73606 7.33333 8.99968C7.33333 8.2633 6.73638 7.66634 6 7.66634C5.26362 7.66634 4.66667 8.2633 4.66667 8.99968C4.66667 9.73606 5.26362 10.333 6 10.333ZM20 8.99968C20 9.73606 19.403 10.333 18.6667 10.333C17.9303 10.333 17.3333 9.73606 17.3333 8.99968C17.3333 8.2633 17.9303 7.66634 18.6667 7.66634C19.403 7.66634 20 8.2633 20 8.99968Z" fill="white"/>
</svg>
