<svg width="24" height="24" viewBox="0 0 24 24" fill="none" xmlns="http://www.w3.org/2000/svg">
<path fill-rule="evenodd" clip-rule="evenodd" d="M12 24C18.6274 24 24 18.6274 24 12C24 5.37258 18.6274 0 12 0C5.37258 0 0 5.37258 0 12C0 18.6274 5.37258 24 12 24Z" fill="white"/>
<path d="M18.5931 9.08211C18.9837 8.69158 18.9837 8.05842 18.5931 7.66789C18.2026 7.27737 17.5695 7.27737 17.1789 7.66789L9.631 15.2158L6.77351 12.3583C6.38299 11.9678 5.74982 11.9678 5.3593 12.3583C4.96878 12.7488 4.96878 13.382 5.3593 13.7725L8.89483 17.3081C8.94474 17.358 8.99861 17.4015 9.05544 17.4387C9.44607 17.7182 9.99273 17.6825 10.3436 17.3317L18.5931 9.08211Z" fill="#00A364"/>
</svg>
